<svg xmlns="http://www.w3.org/2000/svg" width="64" height="64"><circle cx="32" cy="32" r="32" style="opacity:1;fill:#c44;fill-opacity:1;stroke:none;stroke-opacity:1"/><path d="M16 47.325c-.03-.093-.175-1.23-.323-2.529-.562-4.936-2.305-9.96-5.202-14.994-.973-1.692-.959-1.751.663-2.684a48.828 48.828 0 0 0 3.038-1.92c1.29-.904 1.487-.822 3.033 1.263 1.28 1.725 1.732 1.999 1.998 1.209.408-1.21 4.748-4.45 5.961-4.45.465 0 1.603 1.364 2.529 3.032.926 1.669 1.853 3.034 2.06 3.035.58.002 1.226-5.916.808-7.413-.293-1.054.213-1.75 2.448-3.363 1.55-1.119 3.016-2.034 3.26-2.034.243 0 2.673 3.413 5.4 7.585 2.726 4.172 6.744 9.862 8.927 12.643l3.969 5.057-2.073 2.191c-1.14 1.206-2.43 2.192-2.864 2.192-1.383 0-5.331-4.39-9-10.007-1.954-2.993-3.753-5.455-3.997-5.471-.244-.017-.444 2.52-.444 5.637v5.667l-2.623 1.75c-1.442.962-2.841 1.748-3.109 1.747-.268-.001-1.285-1.687-2.26-3.746-.976-2.06-2.343-4.352-3.037-5.094l-1.263-1.35-.401 1.893c-1.385 6.524-1.593 6.986-3.904 8.646-2.045 1.47-3.42 2.047-3.594 1.508Z" style="fill:#fff;fill-opacity:1;stroke:none"/></svg>
